<svg width="52" height="50" viewBox="0 0 52 50" fill="none" xmlns="http://www.w3.org/2000/svg">
<path d="M20.5166 2.92969C20.096 2.92969 19.7549 3.25762 19.7549 3.66211C19.7549 4.0666 20.096 4.39453 20.5166 4.39453C20.9373 4.39453 21.2784 4.0666 21.2784 3.66211C21.2784 3.25762 20.9373 2.92969 20.5166 2.92969ZM48.1914 4.20313H41.3857V1.9043C41.3857 0.854297 40.4972 0 39.4052 0H12.5948C11.5028 0 10.6143 0.854297 10.6143 1.9043V4.20313H3.80859C1.70848 4.20313 0 5.8459 0 7.86523V35.4453C0 36.9823 0.964539 38.2965 2.37037 38.8401L0.561437 41.8528C-0.588453 43.7381 0.106234 46.248 2.09361 47.3514C4.06758 48.4472 6.64574 47.8203 7.81209 45.8781L11.8774 39.1075H21.621L21.0409 43.2535H20.1921C19.4872 43.2535 18.8634 43.7097 18.6751 44.3626L17.6024 48.0818C17.4697 48.5415 17.5659 49.0229 17.8662 49.4026C18.1664 49.7823 18.6232 50 19.1193 50H32.8807C33.3768 50 33.8336 49.7822 34.1338 49.4025C34.4341 49.0229 34.5302 48.5414 34.3977 48.0818L33.3249 44.3627C33.1366 43.7096 32.5129 43.2534 31.8079 43.2534H30.9591L30.379 39.1074H48.1914C50.2915 39.1074 52 37.4646 52 35.4453V7.86523C52 5.8459 50.2915 4.20313 48.1914 4.20313ZM41.3857 8.59766H47.4297V33.248H41.3857V8.59766ZM12.1377 1.9043C12.1377 1.66201 12.3428 1.46484 12.5948 1.46484H39.4052C39.6572 1.46484 39.8623 1.66201 39.8623 1.9043V5.85938H12.1377V1.9043ZM18.3143 10.605C23.8951 10.605 28.4355 14.9708 28.4355 20.337C28.4355 25.7032 23.8951 30.0689 18.3143 30.0689C11.8382 30.0689 6.98009 24.2415 8.45386 18.1358C8.54902 17.7418 8.2939 17.3482 7.88409 17.2568C7.47429 17.1654 7.06509 17.4107 6.96993 17.8048C6.03687 21.6699 7.38116 25.8011 10.2882 28.4422L8.91749 30.7245C8.01592 30.5716 7.08104 30.9882 6.62431 31.7554L5.72813 33.248H4.57031V8.59766H10.6143V11.936C9.78159 12.645 9.04577 13.4758 8.43507 14.4145C8.21204 14.7573 8.3202 15.2093 8.67689 15.4238C9.03348 15.6383 9.50361 15.5343 9.72664 15.1913C11.5823 12.3379 14.7695 10.605 18.3143 10.605ZM13.5739 30.5633L12.4056 32.5089L10.3053 31.343L11.4759 29.3939C12.1277 29.8501 12.8302 30.2433 13.5739 30.5633ZM1.52344 35.4453V7.86523C1.52344 6.65361 2.54861 5.66797 3.80859 5.66797H10.6143V7.13281H4.21484C3.57084 7.13281 3.04688 7.63662 3.04688 8.25586V33.5898C3.04688 34.2091 3.57084 34.7129 4.21484 34.7129H4.84859L3.14691 37.547C2.20746 37.271 1.52344 36.4213 1.52344 35.4453ZM12.5558 35.0481C12.5558 35.0481 6.50711 45.1217 6.49279 45.1456C5.7587 46.3683 4.12699 46.7886 2.85543 46.0827C1.59707 45.3842 1.1506 43.7878 1.88084 42.5853L7.94371 32.4878C8.12825 32.1764 8.55806 32.0619 8.87941 32.2431C8.88083 32.2438 8.88215 32.2448 8.88357 32.2457C8.8858 32.247 8.88824 32.2478 8.89058 32.249L12.2949 34.139C12.2978 34.1406 12.3003 34.1426 12.3033 34.1441C12.3046 34.1448 12.3059 34.1453 12.3072 34.146C12.6333 34.3295 12.7448 34.7332 12.5558 35.0481ZM31.808 44.7183C31.8307 44.7183 31.8508 44.7329 31.8568 44.7539V44.754L32.9296 48.4733C32.9393 48.4969 32.9071 48.5379 32.8807 48.5352H19.1193C19.0928 48.5378 19.0604 48.4973 19.0705 48.4732L20.1433 44.7538C20.1494 44.7328 20.1695 44.7182 20.1921 44.7182H31.808V44.7183ZM22.578 43.2534L23.1581 39.1074H28.8418L29.4219 43.2534H22.578ZM50.4766 35.4453C50.4766 36.6569 49.4514 37.6426 48.1914 37.6426H12.757L13.8751 35.7805C14.0772 35.4438 14.171 35.0759 14.1691 34.7129H32.5766C32.9974 34.7129 33.3383 34.385 33.3383 33.9805C33.3383 33.576 32.9974 33.248 32.5766 33.248H13.7209L15.024 31.078C16.0679 31.3742 17.172 31.5339 18.3143 31.5339C24.7351 31.5339 29.9589 26.511 29.9589 20.3371C29.9589 14.1631 24.735 9.14023 18.3143 9.14023C16.0824 9.14023 13.9564 9.74375 12.1377 10.8406V7.32422H39.8623V33.248H36.1313C35.7105 33.248 35.3695 33.576 35.3695 33.9805C35.3695 34.385 35.7105 34.7129 36.1313 34.7129H47.7852C48.4292 34.7129 48.9531 34.2091 48.9531 33.5898V8.25586C48.9531 7.63662 48.4292 7.13281 47.7852 7.13281H41.3857V5.66797H48.1914C49.4514 5.66797 50.4766 6.65361 50.4766 7.86523V35.4453ZM14.4229 2.92969C14.0022 2.92969 13.6612 3.25762 13.6612 3.66211C13.6612 4.0666 14.0022 4.39453 14.4229 4.39453C14.8436 4.39453 15.1846 4.0666 15.1846 3.66211C15.1846 3.25762 14.8436 2.92969 14.4229 2.92969ZM17.4698 2.92969C17.0491 2.92969 16.708 3.25762 16.708 3.66211C16.708 4.0666 17.0491 4.39453 17.4698 4.39453C17.8904 4.39453 18.2315 4.0666 18.2315 3.66211C18.2315 3.25762 17.8904 2.92969 17.4698 2.92969ZM37.5771 15.1593H31.6875C31.2667 15.1593 30.9258 15.4872 30.9258 15.8917C30.9258 16.2962 31.2667 16.6241 31.6875 16.6241H37.5771C37.9979 16.6241 38.3388 16.2962 38.3388 15.8917C38.3388 15.4872 37.9979 15.1593 37.5771 15.1593ZM37.5771 19.5538H32.3984C31.9777 19.5538 31.6367 19.8817 31.6367 20.2862C31.6367 20.6907 31.9777 21.0187 32.3984 21.0187H37.5771C37.9979 21.0187 38.3388 20.6907 38.3388 20.2862C38.3388 19.8817 37.9979 19.5538 37.5771 19.5538ZM18.3143 27.5394C22.4445 27.5394 25.8047 24.3084 25.8047 20.3371C25.8047 16.3657 22.4445 13.1348 18.3143 13.1348C14.1839 13.1348 10.8237 16.3657 10.8237 20.3371C10.8237 24.3084 14.1839 27.5394 18.3143 27.5394ZM18.3143 14.5995C21.6045 14.5995 24.2813 17.1733 24.2813 20.337C24.2813 23.5007 21.6045 26.0744 18.3143 26.0744C15.024 26.0744 12.3472 23.5006 12.3472 20.337C12.3472 17.1733 15.024 14.5995 18.3143 14.5995ZM37.5771 23.9483H31.5859C31.1652 23.9483 30.8242 24.2763 30.8242 24.6808C30.8242 25.0853 31.1652 25.4132 31.5859 25.4132H37.5771C37.9979 25.4132 38.3388 25.0853 38.3388 24.6808C38.3388 24.2763 37.9979 23.9483 37.5771 23.9483ZM38.3388 11.4972C38.3388 11.0927 37.9979 10.7647 37.5771 10.7647H28.8955C28.4748 10.7647 28.1338 11.0927 28.1338 11.4972C28.1338 11.9017 28.4748 12.2296 28.8955 12.2296H37.5771C37.9979 12.2296 38.3388 11.9017 38.3388 11.4972ZM38.3388 29.0753C38.3388 28.6708 37.9979 28.3429 37.5771 28.3429H28.8955C28.4748 28.3429 28.1338 28.6708 28.1338 29.0753C28.1338 29.4798 28.4748 29.8077 28.8955 29.8077H37.5771C37.9979 29.8077 38.3388 29.4798 38.3388 29.0753Z" fill="#45ACDE"/>
</svg>
