<svg width="70" height="70" viewBox="0 0 70 70" fill="none" xmlns="http://www.w3.org/2000/svg">
<path d="M24.3852 2.30235C17.3911 4.72866 11.3594 9.33388 7.17606 15.4416C2.99273 21.5493 0.87825 28.8375 1.14322 36.2358C1.40818 43.634 4.03862 50.7523 8.64817 56.5451C13.2577 62.3379 19.6034 66.4998 26.7531 68.4195C32.5496 69.9152 38.6226 69.9809 44.45 68.6109C49.7291 67.4251 54.6098 64.8887 58.6141 61.25C62.7817 57.3472 65.8068 52.3823 67.3641 46.8891C69.0568 40.9154 69.358 34.6332 68.2445 28.525H35.6945V42.0274H54.5453C54.1686 44.1809 53.3612 46.2363 52.1716 48.0705C50.982 49.9047 49.4346 51.4801 47.6219 52.7024C45.32 54.225 42.7251 55.2495 40.0039 55.7102C37.2747 56.2176 34.4753 56.2176 31.7461 55.7102C28.98 55.1383 26.3632 53.9966 24.0625 52.3578C20.3665 49.7415 17.5912 46.0246 16.1328 41.7375C14.6498 37.3701 14.6498 32.6353 16.1328 28.268C17.1709 25.2067 18.8871 22.4193 21.1531 20.1141C23.7464 17.4275 27.0295 15.5072 30.6423 14.5637C34.2551 13.6202 38.0579 13.6901 41.6336 14.7656C44.4269 15.6231 46.9812 17.1212 49.093 19.1406C51.2185 17.026 53.3404 14.906 55.4586 12.7805C56.5524 11.6375 57.7445 10.5492 58.8219 9.37891C55.5984 6.37917 51.8147 4.045 47.6875 2.51016C40.1718 -0.218801 31.9483 -0.292139 24.3852 2.30235Z" fill="white"/>
<path d="M24.3852 2.30232C31.9477 -0.29393 40.1712 -0.222522 47.6875 2.50466C51.8154 4.04993 55.5974 6.39534 58.8164 9.40623C57.7227 10.5765 56.5688 11.6703 55.4531 12.8078C53.3313 14.926 51.2112 17.037 49.093 19.1406C46.9812 17.1212 44.4269 15.6231 41.6336 14.7656C38.0591 13.6863 34.2564 13.6124 30.6426 14.552C27.0289 15.4916 23.7438 17.4084 21.1477 20.0922C18.8816 22.3974 17.1655 25.1848 16.1274 28.2461L4.79065 19.4687C8.84851 11.4218 15.8744 5.26651 24.3852 2.30232Z" fill="#E33629"/>
<path d="M1.78278 28.1641C2.39212 25.1442 3.40374 22.2197 4.7906 19.4688L16.1273 28.268C14.6443 32.6353 14.6443 37.3701 16.1273 41.7375C12.3502 44.6542 8.57133 47.5854 4.7906 50.5313C1.31876 43.6205 0.259916 35.7465 1.78278 28.1641Z" fill="#F8BD00"/>
<path d="M35.6945 28.5195H68.2445C69.3579 34.6278 69.0567 40.9099 67.364 46.8836C65.8067 52.3768 62.7817 57.3417 58.614 61.2445C54.9554 58.3898 51.2804 55.557 47.6219 52.7023C49.4357 51.4789 50.9839 49.9018 52.1735 48.0656C53.3632 46.2294 54.1699 44.1719 54.5453 42.0164H35.6945C35.689 37.5211 35.6945 33.0203 35.6945 28.5195Z" fill="#587DBD"/>
<path d="M4.78516 50.5312C8.56589 47.6146 12.3448 44.6833 16.1219 41.7375C17.5832 46.0261 20.3624 49.7432 24.0625 52.3578C26.3704 53.9889 28.9927 55.1213 31.7625 55.6828C34.4917 56.1903 37.2911 56.1903 40.0203 55.6828C42.7415 55.2222 45.3364 54.1977 47.6383 52.675C51.2969 55.5297 54.9719 58.3625 58.6305 61.2172C54.6267 64.8579 49.746 67.3962 44.4664 68.5836C38.639 69.9535 32.566 69.8879 26.7695 68.3922C22.1851 67.1681 17.9029 65.0103 14.1914 62.0539C10.263 58.935 7.05444 55.0045 4.78516 50.5312Z" fill="#319F43"/>
</svg>
