<svg width="103" height="34" viewBox="0 0 103 34" fill="none" xmlns="http://www.w3.org/2000/svg">
<path d="M25.3316 11.9154H13.3055V15.4782H21.8231C21.4047 20.4894 17.2304 22.6037 13.3055 22.6037C8.26615 22.6037 3.8967 18.6506 3.8967 13.1104C3.8967 7.70891 8.07303 3.56276 13.3055 3.56276C17.341 3.56276 19.737 6.15184 19.737 6.15184L22.2416 3.56276C22.2416 3.56276 19.0409 0 13.1949 0C5.76156 0 0 6.29266 0 13.0561C0 19.7088 5.42762 26.1946 13.39 26.1946C20.4049 26.1946 25.5267 21.3785 25.5267 14.2792C25.5267 12.7784 25.3316 11.9154 25.3316 11.9154Z" fill="#4285F4"/>
<path d="M35.1589 9.32642C30.2322 9.32642 26.6956 13.195 26.6956 17.6771C26.6956 22.2417 30.1195 26.1685 35.2132 26.1685C39.8341 26.1685 43.592 22.6339 43.592 17.7897C43.6222 12.1931 39.2245 9.32642 35.1589 9.32642ZM35.2152 12.6397C37.6373 12.6397 39.9468 14.5891 39.9468 17.7616C39.9468 20.8516 37.6635 22.8834 35.2152 22.8834C32.5155 22.8834 30.3991 20.7389 30.3991 17.7616C30.3991 14.8104 32.4873 12.6397 35.2152 12.6397Z" fill="#EA4335"/>
<path d="M53.5881 9.32642C48.6614 9.32642 45.1248 13.195 45.1248 17.6771C45.1248 22.2417 48.5488 26.1685 53.6424 26.1685C58.2634 26.1685 62.0213 22.6339 62.0213 17.7897C62.0233 12.1931 57.6236 9.32642 53.5881 9.32642ZM53.6445 12.6397C56.0666 12.6397 58.376 14.5891 58.376 17.7616C58.376 20.8516 56.0927 22.8834 53.6445 22.8834C50.9447 22.8834 48.8284 20.7389 48.8284 17.7616C48.8002 14.8104 50.9146 12.6397 53.6445 12.6397Z" fill="#FBBC05"/>
<path d="M71.6273 9.32642C67.0889 9.32642 63.5543 13.2794 63.5543 17.7334C63.5543 22.7989 67.6743 26.1685 71.571 26.1685C73.9649 26.1685 75.2464 25.223 76.1919 24.1085V25.7783C76.1919 28.6731 74.4377 30.4273 71.7661 30.4273C69.2052 30.4273 67.8976 28.5061 67.451 27.4218L64.2222 28.7858C65.3628 31.2079 67.6743 33.7406 71.7943 33.7406C76.3046 33.7406 79.7285 30.9021 79.7285 24.9716V9.82734H76.1939V11.2476C75.1056 10.105 73.6028 9.32642 71.6273 9.32642ZM71.9613 12.6397C74.1882 12.6397 76.4715 14.5327 76.4715 17.7616C76.4715 21.0467 74.1882 22.8552 71.9331 22.8552C69.511 22.8552 67.284 20.9059 67.284 17.7897C67.2558 14.5589 69.5955 12.6397 71.9613 12.6397Z" fill="#4285F4"/>
<path d="M95.3998 9.32642C91.141 9.32642 87.55 12.7222 87.55 17.7334C87.55 23.0504 91.5594 26.1967 95.8182 26.1967C99.381 26.1967 101.58 24.2473 102.861 22.4951L99.9382 20.5458C99.1858 21.7146 97.9064 22.8572 95.8182 22.8572C93.4524 22.8572 92.3661 21.5496 91.6982 20.2963L103 15.6171L102.415 14.2531C101.33 11.5534 98.7694 9.32642 95.3998 9.32642ZM95.5667 12.5552C97.0977 12.5552 98.2122 13.3619 98.6849 14.3638L91.141 17.5101C90.807 15.0618 93.1185 12.5552 95.5667 12.5552Z" fill="#EA4335"/>
<path d="M85.8783 0.863281H82.1767V25.6939H85.8783V0.863281Z" fill="#34A853"/>
</svg>
