<svg width="52" height="52" viewBox="0 0 52 52" fill="none" xmlns="http://www.w3.org/2000/svg">
<path d="M18.054 12.2099C17.9046 12.6697 18.0516 13.1625 18.4284 13.4655L21.7836 16.1621L20.6543 20.316C20.5275 20.7823 20.6983 21.2674 21.0896 21.552C21.481 21.8359 21.9948 21.8484 22.3993 21.5838L26.0008 19.2262L29.6024 21.5839C29.7966 21.7109 30.0159 21.7741 30.2348 21.7741C30.472 21.7741 30.7088 21.6998 30.912 21.552C31.3035 21.2677 31.4744 20.7823 31.3473 20.316L30.218 16.1623L33.5729 13.4657C33.95 13.1628 34.0971 12.6699 33.9476 12.2099C33.7982 11.7499 33.3895 11.4376 32.9066 11.4142L28.6071 11.2046L27.0792 7.18047C26.9077 6.72841 26.4843 6.43622 26.0007 6.43622C25.5172 6.43622 25.0938 6.72831 24.9224 7.18037L23.3943 11.2047L19.0952 11.4142C18.6121 11.4376 18.2034 11.7499 18.054 12.2099ZM23.7817 12.8126C24.24 12.7903 24.6412 12.4987 24.8038 12.0699L26.0006 8.9179L27.1975 12.0702C27.3604 12.4989 27.7617 12.7903 28.2196 12.8126L31.5871 12.9768L28.9591 15.089C28.6015 15.3766 28.4483 15.8483 28.5686 16.2907L29.4532 19.5442L26.6322 17.6975C26.4403 17.5719 26.2204 17.5092 26.0005 17.5092C25.7807 17.5092 25.5606 17.572 25.3686 17.6976L22.5478 19.5442L23.4323 16.2909C23.5528 15.8482 23.3995 15.3764 23.0418 15.089L20.4139 12.9769L23.7817 12.8126ZM25.1881 3.79417V0.8125C25.1881 0.363797 25.5519 0 26.0006 0C26.4493 0 26.8131 0.363797 26.8131 0.8125V3.79417C26.8131 4.24288 26.4493 4.60667 26.0006 4.60667C25.5519 4.60667 25.1881 4.24288 25.1881 3.79417ZM30.1362 8.60803C29.8359 8.2746 29.8629 7.7608 30.1963 7.46058L33.5189 4.46875C33.8524 4.16843 34.3661 4.19534 34.6665 4.52887C34.9667 4.8623 34.9398 5.37611 34.6063 5.67633L31.2836 8.66816C31.1283 8.80801 30.9339 8.87687 30.7402 8.87687C30.518 8.87687 30.2966 8.78627 30.1362 8.60803ZM17.3348 4.52887C17.635 4.19534 18.1487 4.16843 18.4824 4.46875L21.8051 7.46058C22.1385 7.7608 22.1654 8.2746 21.8652 8.60803C21.7047 8.78617 21.4833 8.87687 21.2611 8.87687C21.0674 8.87687 20.8731 8.80801 20.7177 8.66816L17.3949 5.67633C17.0614 5.37611 17.0346 4.8623 17.3348 4.52887ZM36.4244 13.4655L39.7795 16.1621L38.6502 20.316C38.5235 20.7823 38.6942 21.2674 39.0855 21.552C39.4767 21.8359 39.9906 21.8483 40.3953 21.5838L43.9968 19.2262L47.5984 21.5839C47.7926 21.7109 48.0119 21.7741 48.2307 21.7741C48.468 21.7741 48.7047 21.6998 48.908 21.552C49.2993 21.2679 49.4701 20.7827 49.3433 20.316L48.214 16.1623L51.5689 13.4657C51.9459 13.1629 52.093 12.67 51.9435 12.2099C51.7941 11.7499 51.3854 11.4376 50.9025 11.4142L46.6031 11.2046L45.0753 7.18047C44.9038 6.72841 44.4803 6.43622 43.9968 6.43622C43.5132 6.43622 43.0897 6.72831 42.9182 7.18037L41.3904 11.2046L37.0913 11.4141C36.608 11.4375 36.1993 11.7499 36.0499 12.2099C35.9004 12.6699 36.0475 13.1628 36.4244 13.4655ZM41.7776 12.8126C42.2359 12.7903 42.6373 12.4987 42.8 12.0698L43.9967 8.9178L45.1933 12.0697C45.3561 12.4987 45.7575 12.7903 46.2156 12.8125L49.5831 12.9767L46.9554 15.0887C46.5976 15.3762 46.4443 15.848 46.5647 16.2906L47.4492 19.5441L44.6282 17.6974C44.4363 17.5718 44.2164 17.5091 43.9965 17.5091C43.7765 17.5091 43.5565 17.5719 43.3647 17.6975L40.5439 19.5441L41.4284 16.2908C41.5487 15.8483 41.3956 15.3766 41.0379 15.0889L38.41 12.9767L41.7776 12.8126ZM0.43228 13.4655L3.7874 16.1621L2.65812 20.316C2.53137 20.7823 2.7021 21.2674 3.09342 21.552C3.48484 21.8359 3.99865 21.8484 4.40317 21.5838L8.00468 19.2262L11.6063 21.5839C11.8005 21.7109 12.0197 21.7741 12.2386 21.7741C12.4759 21.7741 12.7126 21.6998 12.9158 21.552C13.3072 21.2679 13.478 20.7827 13.3511 20.316L12.2219 16.1623L15.5768 13.4657C15.9536 13.1631 16.1007 12.6703 15.9513 12.2094C15.8016 11.7497 15.3929 11.4375 14.9104 11.4141L10.611 11.2045L9.08317 7.18047C8.91163 6.72841 8.48822 6.43622 8.00468 6.43622C7.52104 6.43622 7.09762 6.72831 6.92609 7.18037L5.39828 11.2046L1.09914 11.4141C0.616007 11.4375 0.207319 11.7499 0.0580225 12.2094C-0.0917822 12.6696 0.0551787 13.1627 0.43228 13.4655ZM5.78544 12.8126C6.24379 12.7903 6.64516 12.4987 6.80787 12.0698L8.00458 8.9178L9.20119 12.0697C9.36399 12.4987 9.76537 12.7903 10.2235 12.8125L13.591 12.9767L10.9633 15.0887C10.6055 15.3762 10.4521 15.848 10.5726 16.2906L11.4571 19.5441L8.63609 17.6974C8.44414 17.5718 8.22426 17.5091 8.00437 17.5091C7.78439 17.5091 7.56441 17.5719 7.37255 17.6975L4.55176 19.5441L5.43626 16.2908C5.55662 15.8483 5.40346 15.3766 5.04576 15.0889L2.41783 12.9767L5.78544 12.8126ZM51.8728 43.1573C51.3011 41.3111 50.1302 39.6534 48.5755 38.4892C47.8313 37.932 47.0208 37.4979 46.1659 37.1906C47.3512 36.2602 48.115 34.816 48.115 33.1958C48.115 30.3961 45.8372 28.1185 43.0376 28.1185C40.238 28.1185 37.9602 30.3961 37.9602 33.1958C37.9602 34.8141 38.7222 36.2569 39.9052 37.1873C38.3197 37.7532 36.9151 38.7475 35.8394 40.0873C35.3367 39.384 34.7567 38.7308 34.1048 38.1412C32.7912 36.9532 31.2496 36.0808 29.5893 35.5652C31.3499 34.398 32.5138 32.3996 32.5138 30.1336C32.5138 26.5423 29.592 23.6206 26.0007 23.6206C22.4095 23.6206 19.4876 26.5423 19.4876 30.1336C19.4876 32.3996 20.6514 34.398 22.412 35.5652C20.7517 36.0807 19.2101 36.9532 17.8965 38.1412C17.2445 38.7308 16.6646 39.384 16.162 40.0872C15.0864 38.7473 13.6818 37.753 12.0962 37.187C13.2791 36.2566 14.0411 34.8138 14.0411 33.1955C14.0411 30.3958 11.7634 28.1182 8.96384 28.1182C6.16416 28.1182 3.88642 30.3958 3.88642 33.1955C3.88642 34.8156 4.65017 36.2599 5.83541 37.1903C4.98045 37.4976 4.16998 37.9317 3.42563 38.4889C1.87101 39.6529 0.700101 41.3107 0.128405 43.1569C-0.135759 44.0096 0.0105928 44.875 0.540444 45.5938C1.07019 46.3125 1.85365 46.7082 2.74638 46.7082H13.9785V48.1745C13.9785 50.284 15.6946 52.0001 17.804 52.0001H34.1972C36.3066 52.0001 38.0228 50.284 38.0229 48.1745V46.7086H49.2549C50.1477 46.7086 50.9312 46.3128 51.4608 45.5943C51.9906 44.8754 52.1369 44.0099 51.8728 43.1573ZM43.0376 29.7435C44.9412 29.7435 46.49 31.2922 46.49 33.1958C46.49 35.0995 44.9412 36.6482 43.0376 36.6482C41.134 36.6482 39.5852 35.0995 39.5852 33.1958C39.5852 31.2922 41.134 29.7435 43.0376 29.7435ZM21.1126 30.1336C21.1126 27.4383 23.3055 25.2456 26.0007 25.2456C28.696 25.2456 30.8888 27.4383 30.8888 30.1336C30.8888 32.828 28.6974 35.0202 26.0034 35.0216C26.0025 35.0216 26.0015 35.0216 26.0006 35.0216C25.9998 35.0216 25.9989 35.0216 25.998 35.0216C23.304 35.0201 21.1126 32.8279 21.1126 30.1336ZM8.96384 29.7431C10.8674 29.7431 12.4161 31.2918 12.4161 33.1954C12.4161 35.0991 10.8674 36.6478 8.96384 36.6478C7.06015 36.6478 5.51142 35.0991 5.51142 33.1954C5.51142 31.2918 7.06015 29.7431 8.96384 29.7431ZM14.084 45.0831H2.74648C2.37253 45.0831 2.07048 44.9305 1.84857 44.6295C1.62655 44.3285 1.57019 43.9947 1.68079 43.6375C2.67448 40.4287 5.60141 38.2728 8.96384 38.2728C11.5073 38.2728 13.8242 39.5017 15.2492 41.582C14.6859 42.6765 14.2913 43.8561 14.084 45.0831ZM36.3979 48.1744C36.3978 49.3878 35.4106 50.375 34.1972 50.375H17.804C16.5907 50.375 15.6035 49.3878 15.6035 48.1744V45.9398C16.1917 40.6394 20.6528 36.6479 25.998 36.6466C25.9989 36.6466 25.9998 36.6467 26.0007 36.6467C26.0017 36.6467 26.0026 36.6466 26.0034 36.6466C31.3485 36.648 35.8094 40.6394 36.3979 45.9398V48.1744ZM50.1528 44.63C49.9309 44.9309 49.629 45.0835 49.2549 45.0835H37.9175C37.7101 43.8564 37.3155 42.6768 36.7522 41.5822C38.1774 39.502 40.4942 38.2732 43.0375 38.2732C46.4 38.2732 49.3269 40.4292 50.3206 43.6381C50.4312 43.995 50.3747 44.3288 50.1528 44.63Z" fill="#45ACDE"/>
</svg>
