<svg width="52" height="53" viewBox="0 0 52 53" fill="none" xmlns="http://www.w3.org/2000/svg">
<path d="M16.5715 30.6581C15.5562 29.6432 13.9104 29.6432 12.8951 30.6581C12.4694 31.0872 12.2083 31.6523 12.1576 32.2545C11.8618 32.2209 11.5644 32.2027 11.2667 32.1999C7.53278 32.195 4.21664 34.5851 3.04049 38.1289C1.86434 41.6727 3.09334 45.5713 6.0892 47.7999H2.6C1.16406 47.7999 -1.43051e-06 48.964 -1.43051e-06 50.3999C-1.43051e-06 51.8359 1.16406 52.9999 2.6 52.9999H49.4C50.8359 52.9999 52 51.8359 52 50.3999C52 48.964 50.8359 47.7999 49.4 47.7999H46.1067L48.4051 35.5461C49.6411 35.1804 50.4207 33.9622 50.2353 32.6867C50.0499 31.4111 48.9557 30.4653 47.6667 30.4666C47.6649 28.8862 46.5963 27.5063 45.0667 27.1091C45.0667 27.0727 45.0667 27.0363 45.0667 26.9999C45.0647 25.1153 43.8448 23.448 42.0491 22.8758C40.2534 22.3035 38.2937 22.9576 37.2017 24.4935C36.9389 24.4316 36.6699 24.4002 36.4 24.3999C34.7859 24.4012 33.3854 25.5144 33.02 27.0866C31.4478 27.452 30.3345 28.8525 30.3333 30.4666C29.0437 30.4636 27.9478 31.4088 27.7614 32.6849C27.5751 33.961 28.3548 35.1802 29.5915 35.5461L31.8933 47.7999H26C25.9971 44.9293 23.6707 42.6028 20.8 42.5999H19.7513C19.9389 41.7383 19.9819 40.8515 19.8787 39.9757C20.8809 39.8856 21.7401 39.2231 22.0821 38.2768C22.4242 37.3306 22.1872 36.2718 21.4743 35.5617L20.8615 34.949L50.3715 5.43902C51.0374 4.7841 51.3008 3.82239 51.0616 2.9196C50.8224 2.01681 50.1174 1.31164 49.2147 1.07227C48.312 0.83289 47.3502 1.09608 46.6951 1.76175L17.1851 31.2717L16.5715 30.6581ZM33.8 28.7333C34.2786 28.7333 34.6667 28.3453 34.6667 27.8666C34.6663 27.2623 34.9808 26.7015 35.4964 26.3865C36.0121 26.0715 36.6546 26.0478 37.1921 26.3239C37.4028 26.4319 37.6485 26.449 37.8721 26.3713C38.0957 26.2935 38.2778 26.1277 38.376 25.9123C38.8897 24.8081 40.101 24.2085 41.2905 24.4695C42.4801 24.7304 43.3291 25.7821 43.3333 26.9999C43.332 27.2243 43.3028 27.4475 43.2467 27.6647C43.1766 27.9444 43.2503 28.2407 43.4433 28.455C43.6362 28.6693 43.9231 28.7736 44.2087 28.7333C45.1626 28.7381 45.9333 29.5127 45.9333 30.4666H32.0667C32.0667 29.5093 32.8427 28.7333 33.8 28.7333ZM30.3333 32.1999H47.6667C48.1453 32.1999 48.5333 32.588 48.5333 33.0666C48.5333 33.5453 48.1453 33.9333 47.6667 33.9333H30.3333C29.8547 33.9333 29.4667 33.5453 29.4667 33.0666C29.4667 32.588 29.8547 32.1999 30.3333 32.1999ZM31.3733 35.6666H46.6267L44.3473 47.7999H33.6527L31.3733 35.6666ZM32.9333 49.5333H49.4C49.8786 49.5333 50.2667 49.9213 50.2667 50.3999C50.2667 50.8786 49.8786 51.2666 49.4 51.2666H2.6C2.12135 51.2666 1.73333 50.8786 1.73333 50.3999C1.73333 49.9213 2.12135 49.5333 2.6 49.5333H32.9333ZM16.4667 42.5999C15.988 42.5999 15.6 42.988 15.6 43.4666C15.6 43.9453 15.988 44.3333 16.4667 44.3333H20.8C22.7146 44.3333 24.2667 45.8854 24.2667 47.7999H11.2667C7.43749 47.7999 4.33333 44.6958 4.33333 40.8666C4.33333 37.0374 7.43749 33.9333 11.2667 33.9333C11.7478 33.9381 12.2272 33.9918 12.6975 34.0936C12.7583 34.1783 12.8243 34.259 12.8951 34.3354L17.797 39.2381C17.8739 39.3091 17.9549 39.3753 18.0397 39.4366C18.1417 39.9066 18.1954 40.3857 18.2 40.8666C18.2008 41.4515 18.1265 42.034 17.979 42.5999H16.4667ZM20.2488 38.0127C20.0862 38.1754 19.8657 38.2669 19.6356 38.2669C19.4056 38.2669 19.185 38.1754 19.0225 38.0127L14.1206 33.1099C13.7922 32.7699 13.7969 32.2293 14.1312 31.895C14.4655 31.5607 15.006 31.556 15.3461 31.8845L16.5707 33.1091L17.3065 33.8449L20.2479 36.7863C20.5863 37.1248 20.5863 37.6734 20.2479 38.0118L20.2488 38.0127ZM47.9206 2.98722C48.1382 2.76192 48.4604 2.67156 48.7634 2.75088C49.0665 2.83019 49.3031 3.06683 49.3824 3.36984C49.4617 3.67285 49.3714 3.99508 49.1461 4.21268L19.6361 33.7227L19.2955 33.3829L18.4106 32.4972L47.9206 2.98722Z" fill="#45ACDE"/>
<path d="M36.4 37.3999H34.6667C34.188 37.3999 33.8 37.7879 33.8 38.2666C33.8 38.7452 34.188 39.1332 34.6667 39.1332H36.4C36.8786 39.1332 37.2667 38.7452 37.2667 38.2666C37.2667 37.7879 36.8786 37.3999 36.4 37.3999Z" fill="#45ACDE"/>
<path d="M42.4667 37.3999H39.8667C39.388 37.3999 39 37.7879 39 38.2666C39 38.7452 39.388 39.1332 39.8667 39.1332H42.4667C42.9453 39.1332 43.3333 38.7452 43.3333 38.2666C43.3333 37.7879 42.9453 37.3999 42.4667 37.3999Z" fill="#45ACDE"/>
<path d="M48.5333 25.2667C49.9693 25.2667 51.1333 24.1026 51.1333 22.6667C51.1333 21.2307 49.9693 20.0667 48.5333 20.0667C47.0974 20.0667 45.9333 21.2307 45.9333 22.6667C45.9333 24.1026 47.0974 25.2667 48.5333 25.2667ZM48.5333 21.8C49.012 21.8 49.4 22.188 49.4 22.6667C49.4 23.1453 49.012 23.5333 48.5333 23.5333C48.0547 23.5333 47.6667 23.1453 47.6667 22.6667C47.6667 22.188 48.0547 21.8 48.5333 21.8Z" fill="#45ACDE"/>
<path d="M44.2 14.8666C42.7641 14.8666 41.6 16.0306 41.6 17.4666C41.6 18.9025 42.7641 20.0666 44.2 20.0666C45.6359 20.0666 46.8 18.9025 46.8 17.4666C46.8 16.0306 45.6359 14.8666 44.2 14.8666ZM44.2 18.3332C43.7214 18.3332 43.3333 17.9452 43.3333 17.4666C43.3333 16.9879 43.7214 16.5999 44.2 16.5999C44.6787 16.5999 45.0667 16.9879 45.0667 17.4666C45.0667 17.9452 44.6787 18.3332 44.2 18.3332Z" fill="#45ACDE"/>
<path d="M23.3922 1C22.9232 0.999803 22.5391 1.37273 22.5255 1.84153V1.85973V1.86667C22.5255 2.1856 22.4467 9.66667 15.5835 9.66667C15.1049 9.66667 14.7169 10.0547 14.7169 10.5333C14.7169 11.012 15.1049 11.4 15.5835 11.4C22.4198 11.4 22.5247 18.8828 22.5255 19.2C22.5191 19.6786 22.9019 20.0719 23.3805 20.0784C23.8591 20.0848 24.2524 19.702 24.2589 19.2234V19.2052V19.2C24.2589 18.8811 24.3377 11.4 31.2 11.4C31.6786 11.4 32.0667 11.012 32.0667 10.5333C32.0667 10.0547 31.6786 9.66667 31.2 9.66667C24.3793 9.66667 24.2606 2.21333 24.2589 1.86667C24.2589 1.38802 23.8708 1 23.3922 1ZM27.2497 10.5333C25.475 11.4695 24.1033 13.0216 23.3922 14.8979C22.6811 13.0216 21.3094 11.4695 19.5347 10.5333C21.3094 9.59714 22.6811 8.04509 23.3922 6.1688C24.1033 8.04509 25.475 9.59714 27.2497 10.5333Z" fill="#45ACDE"/>
<path d="M5.2 27.0043V27.0095C5.20263 27.4881 5.59279 27.874 6.07143 27.8714C6.55008 27.8687 6.93596 27.4786 6.93333 26.9999C6.93333 26.7876 7.00613 21.7999 11.2667 21.7999C11.7453 21.7999 12.1333 21.4119 12.1333 20.9333C12.1333 20.4546 11.7453 20.0666 11.2667 20.0666C7.00613 20.0666 6.93333 15.0772 6.93333 14.8666V14.8614C6.9319 14.3827 6.54271 13.9959 6.06407 13.9973C5.58542 13.9988 5.19856 14.3879 5.2 14.8666C5.2 15.0789 5.1272 20.0666 0.866665 20.0666C0.388018 20.0666 -1.43051e-06 20.4546 -1.43051e-06 20.9333C-1.43051e-06 21.4119 0.388018 21.7999 0.866665 21.7999C5.1272 21.7999 5.2 26.7893 5.2 26.9999V27.0043ZM4.0352 20.9333C4.91294 20.3481 5.61513 19.5354 6.06667 18.582C6.5182 19.5354 7.22039 20.3481 8.09813 20.9333C7.22056 21.5186 6.51842 22.3313 6.06667 23.2845C5.61491 22.3313 4.91277 21.5186 4.0352 20.9333Z" fill="#45ACDE"/>
<path d="M9.35393 8.11263L10.6539 9.41263C10.994 9.74107 11.5345 9.73638 11.8688 9.40207C12.2031 9.06777 12.2078 8.52723 11.8794 8.18716L10.5794 6.88716C10.3618 6.66187 10.0396 6.57151 9.73656 6.65083C9.43355 6.73014 9.19691 6.96678 9.1176 7.26979C9.03828 7.5728 9.12864 7.89503 9.35393 8.11263Z" fill="#45ACDE"/>
<path d="M6.75393 5.51265C7.094 5.84109 7.63454 5.83639 7.96884 5.50209C8.30315 5.16779 8.30784 4.62724 7.9794 4.28718L6.6794 2.98718C6.33934 2.65874 5.79879 2.66343 5.46449 2.99774C5.13019 3.33204 5.12549 3.87259 5.45393 4.21265L6.75393 5.51265Z" fill="#45ACDE"/>
<path d="M5.45393 9.41267C5.79237 9.751 6.34097 9.751 6.6794 9.41267L7.9794 8.11267C8.30784 7.77261 8.30314 7.23206 7.96884 6.89776C7.63454 6.56346 7.09399 6.55876 6.75393 6.8872L5.45393 8.1872C5.1156 8.52564 5.1156 9.07424 5.45393 9.41267Z" fill="#45ACDE"/>
<path d="M9.96667 5.76666C10.1965 5.76661 10.4169 5.67527 10.5794 5.51273L11.8794 4.21273C12.1047 3.99513 12.1951 3.6729 12.1157 3.36989C12.0364 3.06688 11.7998 2.83024 11.4968 2.75092C11.1938 2.67161 10.8715 2.76197 10.6539 2.98726L9.35393 4.28726C9.10615 4.53512 9.03204 4.90783 9.16615 5.23163C9.30026 5.55543 9.61619 5.76659 9.96667 5.76666Z" fill="#45ACDE"/>
</svg>
